<?xml version="1.0" encoding="iso-8859-1"?>
<!-- Generator: Adobe Illustrator 19.0.0, SVG Export Plug-In . SVG Version: 6.00 Build 0)  -->
<svg version="1.1" id="Capa_1" xmlns="http://www.w3.org/2000/svg" xmlns:xlink="http://www.w3.org/1999/xlink" x="0px" y="0px"
	 viewBox="0 0 512.001 512.001" style="enable-background:new 0 0 512.001 512.001;" xml:space="preserve">
<path style="fill:#ED5565;" d="M256.001,148c-18.563,0-33.602,7.199-33.602,16l8,344h59.133l0.07-344
	C289.603,155.199,274.564,148,256.001,148z"/>
<path style="fill:#FFD2A6;" d="M289.603,164c0-8.801-15.039-16-33.602-16s-33.602,7.199-33.602,16c0-8.801-15.039-16-33.602-16
	c-18.555,0-33.594,7.199-33.594,16c0-8.801-15.047-16-33.602-16c-5.758,0-11.281,0.719-16,1.922l-1.602-10
	c0-6.48,7.922-11.922,18.32-13.043c1.68-5.438,8.883-9.68,18-10.719c1.68-5.359,8.797-9.68,17.922-10.641
	c1.68-5.441,8.797-9.68,17.914-10.641c1.688-5.438,8.805-9.68,17.922-10.719c1.68-5.359,8.883-9.68,18-10.641
	c1.68-5.441,8.805-9.68,17.922-10.641c1.922-6.238,11.039-10.957,22-10.957c10.961,0,20.078,4.719,22,10.957
	c9.117,0.961,16.242,5.199,17.922,10.641c9.117,0.961,16.32,5.281,18,10.641c9.117,1.039,16.234,5.281,17.922,10.719
	c9.117,0.961,16.234,5.199,17.914,10.641c9.125,0.961,16.242,5.281,17.922,10.641c9.117,1.039,16.32,5.281,18,10.719
	c10.4,1.121,18.322,6.562,18.322,13.043l-1.039,8.637c-2.719-0.398-5.602-0.559-8.563-0.559c-18.555,0-33.602,7.199-33.602,16
	c0-8.801-15.039-16-33.594-16C304.642,148,289.603,155.199,289.603,164z"/>
<path style="fill:#ED5565;" d="M424.001,164l-38.078,328.078c-1.039,8.797-9.125,15.922-17.922,15.922h-35.203l11.766-168.961
	L356.798,164c0-8.801,15.047-16,33.602-16c2.961,0,5.844,0.16,8.563,0.559C413.36,150.32,424.001,156.641,424.001,164z"/>
<g>
	<path style="fill:#E6E9ED;" d="M226.845,368.953c-24.797-5.281-41.32-16.953-42.766-31.109c-0.078-0.641-0.078-1.203-0.078-1.844
		c0-14.961,15.273-27.023,41.117-32.547v-16.414L222.399,164c0-8.801-15.039-16-33.602-16c-18.555,0-33.594,7.199-33.594,16
		l12.234,175.039L179.204,508h51.195L226.845,368.953z"/>
	<path style="fill:#E6E9ED;" d="M285.954,368.953c24.797-5.281,41.32-16.953,42.766-31.109c0.078-0.641,0.078-1.203,0.078-1.844
		c0-14.961-15.273-27.023-41.117-32.547v-16.414L290.399,164c0-8.801,15.039-16,33.602-16c18.555,0,33.594,7.199,33.594,16
		l-12.234,175.039L333.595,508H282.4L285.954,368.953z"/>
</g>
<path style="fill:#ED5565;" d="M167.439,339.039L179.204,508h-35.203c-8.797,0-16.883-7.125-17.922-15.922L88.001,164
	c0-6.078,7.117-11.359,17.602-14.078c4.719-1.203,10.242-1.922,16-1.922c18.555,0,33.602,7.199,33.602,16L167.439,339.039z"/>
<g style="opacity:0.3;">
	<path style="fill:#FFFFFF;" d="M142.079,492.078L104.001,164c0-6.078,7.117-11.359,17.602-14.078
		c2.438-0.621,5.102-1.098,7.891-1.43c-2.539-0.293-5.156-0.492-7.891-0.492c-5.758,0-11.281,0.719-16,1.922
		c-10.485,2.719-17.602,8-17.602,14.078l38.078,328.078c1.039,8.797,9.125,15.922,17.922,15.922h16
		C151.204,508,143.118,500.875,142.079,492.078z"/>
</g>
<g style="opacity:0.2;">
	<path d="M369.923,492.078L408.001,164c0-6.078-7.117-11.359-17.602-14.078c-2.438-0.621-5.102-1.098-7.891-1.43
		c2.539-0.293,5.156-0.492,7.891-0.492c5.758,0,11.281,0.719,16,1.922c10.484,2.719,17.602,8,17.602,14.078l-38.078,328.078
		c-1.039,8.797-9.125,15.922-17.922,15.922h-16C360.798,508,368.884,500.875,369.923,492.078z"/>
</g>
<path style="fill:#E6E9ED;" d="M228.001,302.797c8.641-1.836,18.078-2.797,28-2.797c39.758,0,72,16.078,72,36
	c0,0.641,0,1.203-0.078,1.844C326.001,356.875,294.478,372,256.001,372c-9.922,0-19.438-1.039-28-2.797
	c-24.797-5.281-42.477-17.203-43.922-31.359c-0.078-0.641-0.078-1.203-0.078-1.844C184.001,321.039,202.157,308.32,228.001,302.797z
	"/>
<path style="fill:#FFFFFF;" d="M244.001,369.203c-24.797-5.281-42.477-17.203-43.922-31.359c-0.078-0.641-0.078-1.203-0.078-1.844
	c0-14.961,18.156-27.68,44-33.203c6.633-1.406,13.836-2.125,21.266-2.469c-3.039-0.187-6.118-0.328-9.266-0.328
	c-9.922,0-19.359,0.961-28,2.797c-25.844,5.523-44,18.242-44,33.203c0,0.641,0,1.203,0.078,1.844
	c1.445,14.156,19.125,26.078,43.922,31.359c8.563,1.758,18.078,2.797,28,2.797c3.18,0,6.281-0.141,9.352-0.344
	C257.868,371.313,250.603,370.563,244.001,369.203z"/>
<g style="opacity:0.2;">
	<path d="M268.36,302.797c24.797,5.281,42.477,17.203,43.922,31.359c0.078,0.641,0.078,1.203,0.078,1.844
		c0,14.961-18.156,27.68-44,33.203c-6.633,1.406-13.836,2.125-21.266,2.469c3.039,0.188,6.117,0.328,9.266,0.328
		c9.922,0,19.359-0.961,28-2.797c25.844-5.523,44-18.242,44-33.203c0-0.641,0-1.203-0.078-1.844
		c-1.445-14.156-19.125-26.078-43.922-31.359c-8.563-1.758-18.078-2.797-28-2.797c-3.18,0-6.281,0.141-9.352,0.344
		C254.493,300.688,261.759,301.438,268.36,302.797z"/>
</g>
<g style="opacity:0.2;">
	<path d="M398.962,148.559l0.945-7.844c-0.32-0.043-0.617-0.117-0.945-0.156c-2.719-0.398-5.602-0.559-8.563-0.559
		c-17.203,0-31.227,6.211-33.203,14.125C355.22,146.211,341.204,140,324.001,140c-18.563,0-33.602,7.199-33.602,16h-0.797
		c0-8.801-15.039-16-33.602-16s-33.602,7.199-33.602,16c0-8.801-15.039-16-33.602-16c-18.555,0-33.594,7.199-33.594,16
		c0-8.801-15.047-16-33.602-16c-5.758,0-11.281,0.719-16,1.922c-0.422,0.109-0.805,0.25-1.219,0.367l1.219,7.633
		c4.719-1.203,10.242-1.922,16-1.922c18.555,0,33.602,7.199,33.602,16c0-8.801,15.039-16,33.594-16c18.563,0,33.602,7.199,33.602,16
		c0-8.801,15.039-16,33.602-16s33.602,7.199,33.602,16c0-8.801,15.039-16,33.602-16c18.555,0,33.594,7.199,33.594,16
		c0-8.801,15.047-16,33.602-16C393.36,148,396.243,148.16,398.962,148.559z"/>
</g>
<g style="opacity:0.7;">
	<path style="fill:#FFFFFF;" d="M252.001,51.922c-10.961,0-20.078,4.719-22,10.957c-9.117,0.961-16.242,5.199-17.922,10.641
		c-9.117,0.961-16.32,5.281-18,10.641c-9.117,1.039-16.234,5.281-17.922,10.719c-9.117,0.961-16.234,5.199-17.914,10.641
		c-9.125,0.961-16.242,5.281-17.922,10.641c-9.117,1.039-16.32,5.281-18,10.719c-10.398,1.119-18.32,6.56-18.32,13.041l0.383,2.367
		c0.414-0.117,0.797-0.258,1.219-0.367c4.273-1.09,9.25-1.707,14.43-1.828l-0.032-0.172c0-6.48,7.922-11.922,18.32-13.043
		c1.68-5.438,8.883-9.68,18-10.719c1.68-5.359,8.797-9.68,17.922-10.641c1.68-5.441,8.797-9.68,17.914-10.641
		c1.688-5.438,8.805-9.68,17.922-10.719c1.68-5.359,8.883-9.68,18-10.641c1.68-5.441,8.805-9.68,17.922-10.641
		c1.43-4.633,6.828-8.418,14-10.063C257.517,52.246,254.821,51.922,252.001,51.922z"/>
</g>
<g style="opacity:0.2;">
	<path d="M251.907,51.922c10.961,0,20.078,4.719,22,10.957c9.117,0.961,16.242,5.199,17.922,10.641
		c9.117,0.961,16.32,5.281,18,10.641c9.117,1.039,16.234,5.281,17.922,10.719c9.117,0.961,16.234,5.199,17.914,10.641
		c9.125,0.961,16.242,5.281,17.922,10.641c9.117,1.039,16.32,5.281,18,10.719c10.398,1.121,18.32,6.563,18.32,13.043l-0.383,2.367
		c-0.414-0.117-0.797-0.258-1.219-0.367c-4.273-1.09-9.25-1.707-14.43-1.828l0.031-0.172c0-6.48-7.922-11.922-18.32-13.043
		c-1.68-5.438-8.883-9.68-18-10.719c-1.68-5.359-8.797-9.68-17.922-10.641c-1.68-5.441-8.797-9.68-17.914-10.641
		c-1.688-5.438-8.805-9.68-17.922-10.719c-1.68-5.359-8.883-9.68-18-10.641c-1.68-5.441-8.805-9.68-17.922-10.641
		c-1.43-4.633-6.828-8.418-14-10.063C246.392,52.246,249.087,51.922,251.907,51.922z"/>
</g>
<g style="opacity:0.7;">
	<path style="fill:#FFFFFF;" d="M200.001,108.039c-4.398,0-8,3.602-8,8h16C208.001,111.641,204.399,108.039,200.001,108.039z"/>
	<path style="fill:#FFFFFF;" d="M216.001,108.039c-4.398,0-8,3.602-8,8h16C224.001,111.641,220.399,108.039,216.001,108.039z"/>
	<path style="fill:#FFFFFF;" d="M256.001,75.961c-4.398,0-8,3.598-8,8h16C264.001,79.559,260.399,75.961,256.001,75.961z"/>
	<path style="fill:#FFFFFF;" d="M272.001,116.039c-4.398,0-8,3.602-8,8h16C280.001,119.641,276.399,116.039,272.001,116.039z"/>
	<path style="fill:#FFFFFF;" d="M152.001,132.039c-4.398,0-8,3.602-8,8h16C160.001,135.641,156.399,132.039,152.001,132.039z"/>
	<path style="fill:#FFFFFF;" d="M344.001,124.039c-4.398,0-8,3.602-8,8h16C352.001,127.641,348.399,124.039,344.001,124.039z"/>
	<path style="fill:#FFFFFF;" d="M328.001,124.039c-4.398,0-8,3.602-8,8h16C336.001,127.641,332.399,124.039,328.001,124.039z"/>
</g>
<g>
	<path style="fill:#3A3847;" d="M368.001,512h-224c-10.805,0-20.625-8.727-21.891-19.453L84.024,164.461
		c-0.25-2.195,1.32-4.18,3.516-4.434c2.164-0.301,4.18,1.313,4.438,3.512l38.078,328.078c0.789,6.711,7.179,12.383,13.945,12.383
		h224c6.766,0,13.156-5.672,13.953-12.391l38.07-328.07c0.266-2.195,2.289-3.801,4.438-3.512c2.195,0.254,3.766,2.238,3.516,4.434
		L389.9,492.539C388.626,503.273,378.806,512,368.001,512z"/>
	<path style="fill:#3A3847;" d="M230.399,512c-2.164,0-3.945-1.719-4-3.898l-3.555-139.055c-0.055-2.203,1.688-4.039,3.898-4.094
		c2.203,0.195,4.055,1.688,4.102,3.891l3.555,139.055c0.055,2.211-1.688,4.039-3.898,4.102C230.47,512,230.431,512,230.399,512z"/>
	<path style="fill:#3A3847;" d="M225.118,307.453c-2.172,0-3.953-1.734-4-3.922l-2.719-139.453
		c-0.039-2.207,1.711-4.035,3.922-4.078c2.234-0.207,4.023,1.715,4.078,3.922l2.719,139.453c0.039,2.211-1.711,4.039-3.922,4.078
		C225.173,307.453,225.142,307.453,225.118,307.453z"/>
	<path style="fill:#3A3847;" d="M287.681,307.453c-0.016,0-0.039,0-0.055,0c-2.211-0.031-3.977-1.844-3.945-4.047l1.922-139.461
		c0.023-2.207,1.594-4.09,4.055-3.945c2.211,0.031,3.977,1.848,3.945,4.055l-1.922,139.461
		C291.649,305.703,289.868,307.453,287.681,307.453z"/>
	<path style="fill:#3A3847;" d="M281.603,512c-0.039,0-0.086,0-0.125,0c-2.211-0.07-3.945-1.922-3.875-4.125l4.352-139.047
		c0.07-2.203,1.883-4.063,4.125-3.875c2.211,0.063,3.945,1.914,3.875,4.125l-4.352,139.047C285.532,510.289,283.759,512,281.603,512
		z"/>
	<path style="fill:#3A3847;" d="M332.806,512c-0.094,0-0.188,0-0.289-0.008c-2.203-0.156-3.859-2.07-3.711-4.273l24-343.996
		c0.156-2.207,2.063-3.793,4.273-3.715c2.203,0.156,3.859,2.066,3.711,4.27l-24,344.004C336.642,510.391,334.884,512,332.806,512z"
		/>
	<path style="fill:#3A3847;" d="M179.196,512c-2.078,0-3.836-1.609-3.984-3.719l-24-344.004c-0.148-2.203,1.508-4.113,3.711-4.27
		c2.102-0.098,4.117,1.508,4.273,3.715l24,343.996c0.148,2.203-1.508,4.117-3.711,4.273C179.384,512,179.29,512,179.196,512z"/>
	<path style="fill:#3A3847;" d="M155.204,168c-2.211,0-4-1.789-4-4c0-5.012-11.258-12-29.602-12c-5.211,0-10.398,0.621-15.016,1.797
		c-8.577,2.226-14.585,6.426-14.585,10.203c0,2.211-1.789,4-4,4s-4-1.789-4-4c0-7.895,7.703-14.605,20.594-17.949
		c5.266-1.344,11.141-2.051,17.008-2.051c21.438,0,37.602,8.598,37.602,20C159.204,166.211,157.415,168,155.204,168z"/>
	<path style="fill:#3A3847;" d="M222.399,168c-2.211,0-4-1.789-4-4c0-5.012-11.258-12-29.602-12c-18.336,0-29.594,6.988-29.594,12
		c0,2.211-1.789,4-4,4s-4-1.789-4-4c0-11.402,16.164-20,37.594-20c21.438,0,37.602,8.598,37.602,20
		C226.399,166.211,224.61,168,222.399,168z"/>
	<path style="fill:#3A3847;" d="M289.603,168c-2.211,0-4-1.789-4-4c0-5.012-11.258-12-29.602-12s-29.602,6.988-29.602,12
		c0,2.211-1.789,4-4,4s-4-1.789-4-4c0-11.402,16.164-20,37.602-20s37.602,8.598,37.602,20C293.603,166.211,291.814,168,289.603,168z
		"/>
	<path style="fill:#3A3847;" d="M356.798,168c-2.211,0-4-1.789-4-4c0-5.012-11.258-12-29.594-12c-18.344,0-29.602,6.988-29.602,12
		c0,2.211-1.789,4-4,4s-4-1.789-4-4c0-11.402,16.164-20,37.602-20c21.43,0,37.594,8.598,37.594,20
		C360.798,166.211,359.009,168,356.798,168z"/>
	<path style="fill:#3A3847;" d="M424.001,168c-2.211,0-4-1.789-4-4c0-4.25-8.227-9.844-21.523-11.473
		C396.009,152.168,393.4,152,390.4,152c-18.344,0-29.602,6.988-29.602,12c0,2.211-1.789,4-4,4s-4-1.789-4-4
		c0-11.402,16.164-20,37.602-20c3.391,0,6.383,0.195,9.141,0.602c16.983,2.078,28.46,9.878,28.46,19.398
		C428.001,166.211,426.212,168,424.001,168z"/>
	<path style="fill:#3A3847;" d="M256.001,376c-9.82,0-19.508-0.969-28.805-2.883c-27.461-5.844-45.5-19.203-47.094-34.867
		c-0.094-0.734-0.102-1.438-0.102-2.25c0-16.672,18.07-30.898,47.164-37.109c9.009-1.922,18.704-2.891,28.837-2.891
		c42.617,0,76,17.57,76,40c0,0.813-0.008,1.516-0.109,2.328C329.728,359.766,297.103,376,256.001,376z M256.001,304
		c-9.57,0-18.711,0.914-27.164,2.719c-24.422,5.211-40.836,16.984-40.836,29.281c0,0.469-0.008,0.883,0.047,1.359
		c1.227,11.984,17.234,22.914,40.789,27.922c8.734,1.805,17.891,2.719,27.164,2.719c35.766,0,66.242-13.711,67.945-30.563
		c0.063-0.555,0.055-0.969,0.055-1.438C324.001,318.656,292.86,304,256.001,304z"/>
	<path style="fill:#3A3847;" d="M288.001,336h-64c-2.211,0-4-1.789-4-4s1.789-4,4-4h64c2.211,0,4,1.789,4,4S290.212,336,288.001,336
		z"/>
	<path style="fill:#3A3847;" d="M272.001,352h-32c-2.211,0-4-1.789-4-4s1.789-4,4-4h32c2.211,0,4,1.789,4,4S274.212,352,272.001,352
		z"/>
	<path style="fill:#3A3847;" d="M400.001,143.922c-2.211,0-4-1.789-4-4c0-3.594-5.641-8.082-14.75-9.066
		c-1.586-0.172-2.922-1.27-3.391-2.797c-1-3.223-6.344-6.98-14.633-7.926c-1.57-0.176-2.891-1.266-3.367-2.777
		c-1.016-3.25-6.336-6.996-14.523-7.859c-1.586-0.168-2.93-1.266-3.398-2.797c-0.969-3.145-5.93-6.938-14.516-7.844
		c-1.586-0.168-2.922-1.266-3.398-2.789c-1.188-3.828-7.172-7.09-14.555-7.934c-1.57-0.176-2.891-1.266-3.367-2.777
		c-1.016-3.246-6.359-6.988-14.602-7.859c-1.586-0.168-2.93-1.266-3.398-2.797c-0.969-3.141-5.93-6.938-14.523-7.844
		c-1.594-0.168-2.93-1.27-3.398-2.801c-1.234-3.996-8.367-8.133-18.18-8.133c-9.813,0-16.945,4.137-18.18,8.133
		c-0.469,1.531-1.805,2.633-3.398,2.801c-8.594,0.906-13.555,4.703-14.523,7.844c-0.469,1.531-1.813,2.629-3.398,2.797
		c-8.242,0.871-13.586,4.613-14.602,7.859c-0.477,1.512-1.797,2.602-3.367,2.777c-7.383,0.844-13.367,4.105-14.555,7.934
		c-0.477,1.523-1.813,2.621-3.398,2.789c-8.586,0.906-13.547,4.699-14.516,7.844c-0.469,1.531-1.813,2.629-3.398,2.797
		c-8.188,0.863-13.508,4.609-14.523,7.859c-0.477,1.512-1.797,2.602-3.367,2.777c-8.289,0.945-13.633,4.703-14.633,7.926
		c-0.469,1.527-1.805,2.625-3.391,2.797c-9.109,0.984-14.75,5.473-14.75,9.066c0,2.211-1.789,4-4,4s-4-1.789-4-4
		c0-8.102,7.93-14.766,19.563-16.699c2.914-5.262,9.57-9.246,17.992-10.707c2.922-5.293,9.563-9.262,17.922-10.656
		c2.914-5.285,9.547-9.246,17.922-10.641c2.914-5.262,9.547-9.246,17.914-10.699c2.93-5.293,9.594-9.262,18-10.66
		c2.914-5.281,9.547-9.242,17.922-10.641c3.703-6.762,13.398-11.297,24.766-11.297s21.063,4.535,24.766,11.297
		c8.375,1.398,15.008,5.359,17.922,10.641c8.406,1.398,15.07,5.367,18,10.66c8.367,1.453,15,5.438,17.914,10.699
		c8.375,1.395,15.008,5.355,17.922,10.641c8.359,1.395,15,5.363,17.922,10.656c8.422,1.461,15.078,5.445,17.992,10.707
		c11.629,1.933,19.559,8.597,19.559,16.699C404.001,142.133,402.212,143.922,400.001,143.922z"/>
	<path style="fill:#3A3847;" d="M208.001,120c-2.211,0-4-1.789-4-4c0-2.207-1.797-4-4-4s-4,1.793-4,4c0,2.211-1.789,4-4,4
		s-4-1.789-4-4c0-6.617,5.383-12,12-12s12,5.383,12,12C212.001,118.211,210.212,120,208.001,120z"/>
	<path style="fill:#3A3847;" d="M224.001,120c-2.211,0-4-1.789-4-4c0-2.207-1.797-4-4-4s-4,1.793-4,4c0,2.211-1.789,4-4,4
		s-4-1.789-4-4c0-6.617,5.383-12,12-12s12,5.383,12,12C228.001,118.211,226.212,120,224.001,120z"/>
	<path style="fill:#3A3847;" d="M264.001,87.922c-2.211,0-4-1.789-4-4c0-2.207-1.797-4-4-4c-2.203,0-4,1.793-4,4
		c0,2.211-1.789,4-4,4s-4-1.789-4-4c0-6.617,5.383-12,12-12c6.617,0,12,5.383,12,12C268.001,86.133,266.212,87.922,264.001,87.922z"
		/>
	<path style="fill:#3A3847;" d="M280.001,128c-2.211,0-4-1.789-4-4c0-2.207-1.797-4-4-4s-4,1.793-4,4c0,2.211-1.789,4-4,4
		s-4-1.789-4-4c0-6.617,5.383-12,12-12s12,5.383,12,12C284.001,126.211,282.212,128,280.001,128z"/>
	<path style="fill:#3A3847;" d="M160.001,144c-2.211,0-4-1.789-4-4c0-2.207-1.797-4-4-4s-4,1.793-4,4c0,2.211-1.789,4-4,4
		s-4-1.789-4-4c0-6.617,5.383-12,12-12s12,5.383,12,12C164.001,142.211,162.212,144,160.001,144z"/>
	<path style="fill:#3A3847;" d="M352.001,136c-2.211,0-4-1.789-4-4c0-2.207-1.797-4-4-4s-4,1.793-4,4c0,2.211-1.789,4-4,4
		s-4-1.789-4-4c0-6.617,5.383-12,12-12s12,5.383,12,12C356.001,134.211,354.212,136,352.001,136z"/>
	<path style="fill:#3A3847;" d="M336.001,136c-2.211,0-4-1.789-4-4c0-2.207-1.797-4-4-4s-4,1.793-4,4c0,2.211-1.789,4-4,4
		s-4-1.789-4-4c0-6.617,5.383-12,12-12s12,5.383,12,12C340.001,134.211,338.212,136,336.001,136z"/>
	<path style="fill:#3A3847;" d="M352.001,71.922c-1.023,0-2.055-0.395-2.836-1.18c-1.555-1.566-1.555-4.098,0.016-5.656
		c1.328-1.34,12.688-13.563-0.008-26.258c-14.891-14.895-6.516-31.145,0-37.656c1.563-1.563,4.094-1.563,5.656,0
		c1.563,1.559,1.563,4.082,0.008,5.645l0,0c-1.336,1.359-12.711,13.652-0.008,26.355c5.508,5.504,8.289,11.641,8.281,18.242
		c-0.008,10.98-7.953,19.008-8.289,19.344C354.04,71.535,353.024,71.922,352.001,71.922z"/>
	<path style="fill:#3A3847;" d="M255.118,40c-1.023,0-2.047-0.391-2.828-1.172c-14.891-14.895-6.516-31.145,0-37.656
		c1.563-1.563,4.094-1.563,5.656,0c1.563,1.559,1.563,4.082,0.008,5.645l0,0c-1.336,1.359-12.711,13.652-0.008,26.355
		c1.563,1.563,1.563,4.094,0,5.656C257.165,39.609,256.142,40,255.118,40z"/>
	<path style="fill:#3A3847;" d="M160.001,71.922c-1.023,0-2.055-0.395-2.836-1.18c-1.555-1.566-1.555-4.098,0.016-5.656
		c1.328-1.34,12.688-13.563-0.008-26.258c-14.891-14.895-6.516-31.145,0-37.656c1.563-1.563,4.094-1.563,5.656,0
		c1.563,1.559,1.563,4.082,0.008,5.645l0,0c-1.336,1.359-12.711,13.652-0.008,26.355c5.508,5.504,8.289,11.641,8.281,18.242
		c-0.008,10.98-7.953,19.008-8.289,19.344C162.04,71.535,161.024,71.922,160.001,71.922z"/>
</g>
<g>
</g>
<g>
</g>
<g>
</g>
<g>
</g>
<g>
</g>
<g>
</g>
<g>
</g>
<g>
</g>
<g>
</g>
<g>
</g>
<g>
</g>
<g>
</g>
<g>
</g>
<g>
</g>
<g>
</g>
</svg>
